<?xml version="1.0" encoding="UTF-8" standalone="no"?>
<!-- Created with Inkscape (http://www.inkscape.org/) -->

<svg
   width="10.563567mm"
   height="10.563572mm"
   viewBox="0 0 10.563567 10.563572"
   version="1.1"
   id="svg1"
   xml:space="preserve"
   xmlns:inkscape="http://www.inkscape.org/namespaces/inkscape"
   xmlns:sodipodi="http://sodipodi.sourceforge.net/DTD/sodipodi-0.dtd"
   xmlns="http://www.w3.org/2000/svg"
   xmlns:svg="http://www.w3.org/2000/svg"><sodipodi:namedview
     id="namedview1"
     pagecolor="#ffffff"
     bordercolor="#000000"
     borderopacity="0.25"
     inkscape:showpageshadow="2"
     inkscape:pageopacity="0.0"
     inkscape:pagecheckerboard="0"
     inkscape:deskcolor="#d1d1d1"
     inkscape:document-units="mm"><inkscape:page
       x="0"
       y="5.5448698e-16"
       width="10.563567"
       height="10.563572"
       id="page1"
       margin="0"
       bleed="0" /></sodipodi:namedview><defs
     id="defs1" /><g
     inkscape:label="Layer 1"
     inkscape:groupmode="layer"
     id="layer1"
     transform="translate(-1498.7128,-9.2999326)"><g
       id="g4471"
       inkscape:export-filename="g4471.svg"
       inkscape:export-xdpi="961.79633"
       inkscape:export-ydpi="961.79633"><rect
         style="fill:#d45500;stroke:none;stroke-width:0.120503"
         id="rect4425"
         width="10.563572"
         height="10.563572"
         x="1498.7129"
         y="9.2999315"
         sodipodi:type="rect"
         ry="2.7193353" /><g
         id="g4469"
         style="fill:#ffffff"
         transform="matrix(0.19725459,0,0,0.19725459,1261.2197,31.436664)"><path
           style="opacity:1;fill:#ffffff;fill-opacity:1;stroke:none;stroke-width:44.5;stroke-dasharray:none"
           id="path4468"
           d="m 1224.3732,-65.943773 c 0.4091,-1.525807 0.6662,-3.088812 0.9508,-4.641448 0.6051,-3.111841 1.3095,-6.205085 2.1296,-9.267523 0.192,-0.71714 0.3972,-1.430695 0.5958,-2.146043 1.0229,-3.616571 2.4346,-7.102454 3.6764,-10.644653 0.7164,-2.011291 1.4125,-4.030485 2.0362,-6.072632 0.3815,-1.222682 0.703,-2.461488 0.9939,-3.708328 0.1924,-0.90638 0.4082,-1.80769 0.5978,-2.71464 0.1033,-0.45941 0.1782,-0.92418 0.3014,-1.37895 0.01,-0.0322 0.019,-0.0644 0.028,-0.0966 0,-0.007 0.017,-0.0301 0.013,-0.0224 -0.7517,1.42219 -0.087,0.19966 -3.4891,-1.72787 -0.038,-0.0213 0.032,0.0806 0.042,0.12264 0.017,0.0719 0.027,0.14539 0.04,0.21809 0.1704,1.04285 0.3728,2.07981 0.5689,3.11802 0.5676,2.94852 1.0312,5.915617 1.5325,8.875821 0.531,2.979123 1.1441,5.942766 1.6487,8.92666 0.2747,1.624679 0.5005,3.120819 0.7522,4.747591 0.5673,3.62839 1.104,7.260793 1.5127,10.910686 0.1972,1.776976 0.3832,3.555188 0.5722,5.333069 0.079,0.767794 0.1411,1.537194 0.2449,2.302203 0.022,0.212733 0.066,0.424193 0.066,0.638741 0,0 3.5967,1.722715 3.5967,1.722715 v 0 c -0.1157,-0.18493 -0.075,-0.437274 -0.1462,-0.63728 -0.1353,-0.777166 -0.2407,-1.55814 -0.3456,-2.340018 -0.2682,-1.813652 -0.5205,-3.629702 -0.7946,-5.442553 -0.5195,-3.692993 -1.146,-7.369477 -1.7649,-11.046875 -0.3923,-2.407769 -0.8009,-4.812842 -1.1936,-7.220508 -0.1278,-0.783418 -0.2437,-1.568781 -0.3747,-2.35167 -0.1154,-0.689456 -0.243,-1.376807 -0.3645,-2.06521 -0.1095,-0.656627 -0.2189,-1.313255 -0.3284,-1.969884 -0.4545,-2.906144 -0.852,-5.820048 -1.2434,-8.735208 -0.1415,-1.0087 -0.3003,-2.01509 -0.4106,-3.02784 -0.01,-0.0711 -0.014,-0.142 -0.018,-0.21325 0,-0.0548 0.044,-0.13364 0,-0.16462 -2.2217,-1.51977 -2.6824,-3.2806 -3.5856,-1.90778 -0.017,0.026 -0.039,0.16188 -0.042,0.17788 -0.091,0.47434 -0.1613,0.95128 -0.2455,1.42678 -0.1516,0.915 -0.3635,1.81854 -0.5449,2.7279 -0.2663,1.2504 -0.5605,2.49492 -0.915,3.72366 -0.5718,2.067344 -1.1594,4.130139 -1.821,6.170945 -1.202,3.575282 -2.4493,7.137053 -3.5092,10.758087 -1.0734,3.745519 -2.0732,7.511595 -2.9801,11.301082 -0.155,0.63042 -0.3976,1.624687 -0.565,2.280248 -0.1865,0.729655 -0.3692,1.465972 -0.6712,2.158479 z" /><path
           style="opacity:1;fill:#ffffff;fill-opacity:1;stroke:none;stroke-width:44.5;stroke-dasharray:none"
           id="path4469"
           d="m 1218.6688,-96.529987 c 0.7183,-0.01368 1.4365,0.05853 2.1512,0.124167 1.6273,0.08333 3.2577,0.0746 4.8866,0.0786 1.4848,-0.02172 2.9713,-0.02032 4.454,-0.114692 0.6994,-0.04452 1.5396,-0.126092 2.2379,-0.189894 1.6919,-0.179181 3.3916,-0.240602 5.0897,-0.323964 1.1688,-0.06279 2.3363,-0.137125 3.5065,-0.16846 0.9686,-0.01442 1.9368,-0.01693 2.9048,-0.0541 0.7062,-0.02762 1.4122,-0.02682 2.117,-0.07954 0.1207,0.03456 0.2459,-0.05197 0.3669,-0.03117 0.028,0.0049 0.093,0.06708 0.068,0.05242 -4.2872,-2.553174 -2.4367,-2.93172 -3.4919,-1.873403 -0.5808,0.472339 -1.2659,0.801028 -1.9356,1.12708 -1.2135,0.574852 -2.471,1.050655 -3.7136,1.558012 -1.7767,0.71991 -3.5595,1.424715 -5.353,2.101641 -1.763,0.633526 -3.5208,1.281885 -5.2906,1.896226 -1.3956,0.476493 -2.7757,0.996934 -4.1555,1.517155 -0.881,0.33486 -1.7577,0.678839 -2.6327,1.028854 -0.6371,0.293568 -1.3049,0.506365 -1.9609,0.750742 -0.1784,0.06166 -0.356,0.126791 -0.5366,0.181649 -0.023,0.007 -0.052,0.0021 -0.069,0.01844 -0.039,0.03627 -0.1342,0.102219 -0.09,0.131064 1.138,0.739177 2.3319,1.388443 3.4979,2.082665 0.5993,-0.139187 1.211,-0.22778 1.8229,-0.292838 1.3532,-0.103341 2.7093,-0.160912 4.0658,-0.197946 1.8065,-0.02437 3.6124,0.04462 5.4159,0.140939 1.6154,0.08949 3.2252,0.234129 4.8283,0.451162 1.2977,0.183758 2.5751,0.48746 3.8527,0.775576 0.9926,0.249121 1.9861,0.505139 2.9565,0.832429 0.5818,0.196207 0.782,0.288245 1.3411,0.517414 0.5088,0.225541 0.6187,0.260995 1.0953,0.521613 0.1505,0.08227 0.5931,0.344598 0.444,0.259879 -4.8926,-2.779999 -3.3535,-2.06433 -2.2361,-1.157431 0.4422,0.414301 0.8034,0.917869 0.9787,1.503347 0.036,0.120245 0.058,0.244187 0.087,0.366281 0.1678,0.839113 0.1278,1.689788 0.014,2.531684 -0.1154,0.686486 -0.3935,1.329923 -0.82,1.880698 -0.087,0.111763 -0.183,0.215493 -0.2745,0.323242 -0.5345,0.575095 -1.17,1.049242 -1.8637,1.415822 -0.1654,0.08737 -0.3361,0.164142 -0.5042,0.246213 -1.1578,0.575485 -2.4229,0.812943 -3.6921,0.985835 -1.5279,0.164902 -3.067,0.177816 -4.6017,0.225902 -1.6062,0.05241 -3.2124,0.05668 -4.8189,0.03013 -1.6103,-0.07484 -3.2155,-0.230621 -4.8206,-0.374771 -1.5177,-0.141137 -3.0287,-0.33808 -4.5293,-0.60365 -0.8348,-0.156469 -1.6603,-0.363553 -2.462,-0.645372 -0.1881,-0.06613 -0.8957,-0.343082 -1.0894,-0.418443 -0.1651,-0.07317 -0.3305,-0.145561 -0.4953,-0.219515 -0.2189,-0.09828 -0.6591,-0.295878 -0.8761,-0.41335 -0.125,-0.06769 -0.4896,-0.28946 -0.3658,-0.219398 3.0233,1.711926 3.9103,2.396979 2.6953,1.484667 -0.5147,-0.414486 -0.8414,-0.968909 -1.096,-1.567273 -0.1589,-0.382457 -0.2683,-0.773668 -0.2187,-1.187942 0.083,-0.348168 0.2853,-0.642786 0.5066,-0.916977 0.2466,-0.229933 0.5342,-0.411686 0.8296,-0.571989 0.083,0.02299 0.146,-0.124984 0.2295,-0.11012 0.027,0.0048 0.065,0.08522 0.04,0.07236 -1.1381,-0.599373 -2.2681,-1.214127 -3.3929,-1.838052 -0.026,-0.01463 0.064,-0.0081 0.09,0.0061 0.027,0.01455 0.038,0.04851 0.057,0.07277 0.081,0.188434 0.088,0.39629 0.087,0.598427 10e-5,0.02328 10e-5,0.04657 10e-5,0.06986 0,0 3.5444,1.805599 3.5444,1.805599 v 0 c 0,-0.02522 0,-0.0504 0,-0.07561 -0.01,-0.239707 -0.01,-0.480121 -0.041,-0.718212 -0.01,-0.04894 -0.014,-0.09776 -0.019,-0.146809 -0.01,-0.05624 0.033,-0.140211 -0.016,-0.169005 -3.1894,-1.88509 -2.4607,-2.594703 -3.8922,-1.714826 -0.3241,0.204058 -0.6531,0.408628 -0.909,0.698601 -0.251,0.333351 -0.4702,0.690708 -0.5963,1.091658 -0.036,0.179051 -0.059,0.25028 -0.061,0.434554 0,0.330478 0.1022,0.654693 0.2117,0.961887 0.2534,0.640064 0.539,1.263994 1.0409,1.752833 1.3248,1.18677 0.2562,0.263054 3.9209,2.398898 0.549,0.31995 1.1571,0.529428 1.7376,0.781203 1.1589,0.430702 2.3391,0.799891 3.5663,0.980832 1.502,0.240019 3.0123,0.421838 4.5268,0.564224 1.6083,0.136146 3.2162,0.29287 4.8298,0.348205 1.6102,0.0236 3.2203,0.0057 4.83,-0.04297 1.5508,-0.04268 3.106,-0.06465 4.6486,-0.244742 0.5457,-0.08201 0.8705,-0.12183 1.4101,-0.238784 0.8241,-0.178604 1.6238,-0.458055 2.3838,-0.822714 0.1757,-0.08712 0.3542,-0.168682 0.527,-0.261353 0.7328,-0.393036 1.4017,-0.895379 1.9599,-1.513401 0.098,-0.117324 0.2016,-0.230417 0.2944,-0.351969 0.4586,-0.600266 0.7645,-1.30015 0.9118,-2.039774 0.1202,-0.876826 0.1836,-1.762159 0.054,-2.642928 -0.047,-0.276974 -0.077,-0.512194 -0.1637,-0.780405 -0.1612,-0.49657 -0.4729,-0.929682 -0.8073,-1.32285 -0.1031,-0.09742 -0.2011,-0.200488 -0.3092,-0.292267 -0.1122,-0.09522 -0.2247,-0.192177 -0.3508,-0.267956 -1.2195,-0.732674 -2.4522,-1.443083 -3.6835,-2.155855 -0.4861,-0.281429 -1.0085,-0.496122 -1.5273,-0.707765 -1.4101,-0.5338 -2.8577,-0.953384 -4.3252,-1.299483 -1.286,-0.300437 -2.5781,-0.594384 -3.8901,-0.755933 -1.5874,-0.183615 -3.1816,-0.283358 -4.7764,-0.379362 -1.8151,-0.09749 -3.6325,-0.155173 -5.4505,-0.13068 -1.3962,0.02715 -2.7939,0.05019 -4.1872,0.149211 -0.6454,0.06784 -1.2907,0.149593 -1.9274,0.276204 1.078,0.714267 2.1832,1.389097 3.2339,2.142805 0.039,0.02792 -0.065,0.07278 -0.083,0.117189 -0.01,0.01654 0.03,-0.01897 0.046,-0.02646 0.1652,-0.07632 0.3381,-0.135681 0.5048,-0.208135 0.6463,-0.253939 1.2945,-0.502356 1.9308,-0.780923 0.8587,-0.355523 1.7209,-0.702138 2.5801,-1.056375 1.3501,-0.538284 2.7005,-1.076259 4.0715,-1.559809 1.7626,-0.631687 3.5253,-1.262848 5.281,-1.91349 1.7982,-0.688793 3.5875,-1.400178 5.3872,-2.085163 1.2784,-0.492418 2.5761,-0.940758 3.8181,-1.521801 0.7206,-0.346721 1.4616,-0.686689 2.0876,-1.191726 0.01,-0.0091 0.3364,-0.333801 0.2915,-0.367268 -3.5851,-2.668968 -2.0693,-2.311106 -3.7923,-2.115775 -0.6838,0.06168 -1.3717,0.06059 -2.0569,0.101426 -0.9594,0.03568 -1.9193,0.03163 -2.8785,0.07112 -1.1634,0.04713 -2.3254,0.115694 -3.4873,0.192823 -1.6635,0.105206 -3.3246,0.238194 -4.9821,0.416618 -0.9188,0.08246 -1.3041,0.124206 -2.2276,0.178115 -1.4864,0.08678 -2.9756,0.08478 -4.464,0.08197 -1.6682,-0.02447 -3.3395,-0.04358 -5.0016,-0.201571 -0.7525,-0.0682 -1.5049,-0.147214 -2.2611,-0.160689 z" /></g></g></g></svg>
